<?xml version="1.0" encoding="UTF-8"?>
<svg xmlns="http://www.w3.org/2000/svg" xmlns:xlink="http://www.w3.org/1999/xlink" width="810pt" height="809.999993pt" viewBox="0 0 810 809.999993" version="1.2">
<defs>
<clipPath id="clip1">
  <path d="M 115 30.433594 L 749 30.433594 L 749 779.683594 L 115 779.683594 Z M 115 30.433594 "/>
</clipPath>
<clipPath id="clip2">
  <path d="M 145 576 L 462 576 L 462 779.683594 L 145 779.683594 Z M 145 576 "/>
</clipPath>
</defs>
<g id="surface1">
<path style=" stroke:none;fill-rule:nonzero;fill:rgb(50.588989%,75.689697%,20.388794%);fill-opacity:1;" d="M 132.199219 581.136719 C 184.058594 456.851562 336.375 402.820312 353.5625 397.0625 C 416.40625 376.058594 563.707031 321.910156 592.144531 297.9375 L 600.378906 291.0625 C 646.789062 252.519531 710.203125 199.765625 741.707031 36.476562 C 700.3125 96.894531 688.367188 116.835938 650.214844 149.898438 C 534.132812 250.542969 430.347656 162.632812 241.546875 252.734375 C 55.699219 341.441406 56.578125 526.632812 61.523438 572.707031 C 63.761719 593.308594 62.0625 677.253906 133.765625 760.890625 C 109.839844 696.589844 109.222656 636.242188 132.199219 581.136719 "/>
<path style=" stroke:none;fill-rule:nonzero;fill:rgb(50.588989%,75.689697%,20.388794%);fill-opacity:1;" d="M 730.472656 238.628906 C 743.914062 192.410156 751.3125 149.707031 753.058594 122.054688 C 754.269531 102.71875 751.964844 68.308594 748.949219 46.710938 C 716.171875 206.628906 650.191406 261.507812 606.203125 298.066406 L 598.003906 304.894531 C 565.339844 332.441406 399.171875 391.421875 356.449219 405.707031 C 339.652344 411.316406 190.921875 464.070312 140.605469 584.640625 C 119.867188 634.347656 119.207031 688.640625 138.355469 746.558594 C 138.105469 740.09375 139.042969 732.671875 141.28125 723.683594 C 148.976562 692.992188 171.210938 671.257812 192.804688 650.507812 C 229.28125 615.433594 286.082031 608.398438 333.507812 597.113281 C 369.242188 588.617188 405.625 583.398438 440.648438 572.457031 C 492.21875 556.363281 536.574219 528.542969 577.824219 493.628906 C 660.742188 423.421875 700.65625 341.097656 730.472656 238.628906 "/>
<path style=" stroke:none;fill-rule:nonzero;fill:rgb(39.608765%,57.249451%,18.03894%);fill-opacity:1;" d="M 148.324219 772.859375 C 144.570312 764.007812 141.222656 755.238281 138.355469 746.558594 C 138.746094 757.066406 142.285156 764.992188 148.324219 772.859375 "/>
<g clip-path="url(#clip1)" clip-rule="nonzero">
<path style=" stroke:none;fill-rule:nonzero;fill:rgb(31.369019%,46.269226%,16.079712%);fill-opacity:1;" d="M 140.605469 584.640625 C 190.921875 464.070312 339.652344 411.316406 356.449219 405.707031 C 399.171875 391.421875 565.339844 332.441406 598.003906 304.894531 L 606.203125 298.066406 C 650.191406 261.507812 716.171875 206.628906 748.949219 46.710938 C 747.953125 39.527344 746.894531 33.769531 745.855469 30.457031 C 744.402344 32.558594 743.089844 34.476562 741.707031 36.476562 C 710.203125 199.765625 646.789062 252.519531 600.378906 291.0625 L 592.144531 297.9375 C 563.707031 321.910156 416.40625 376.058594 353.5625 397.0625 C 336.375 402.820312 184.058594 456.851562 132.199219 581.136719 C 109.222656 636.242188 109.839844 696.589844 133.765625 760.890625 C 139.191406 767.242188 145.046875 773.558594 151.351562 779.863281 C 150.300781 777.519531 149.34375 775.191406 148.324219 772.859375 C 142.285156 764.992188 138.746094 757.066406 138.355469 746.558594 C 119.207031 688.640625 119.867188 634.347656 140.605469 584.640625 "/>
</g>
<path style=" stroke:none;fill-rule:nonzero;fill:rgb(34.509277%,50.19989%,16.859436%);fill-opacity:1;" d="M 166.882812 703.453125 C 201.472656 664.085938 264.351562 663.148438 271.40625 663.171875 C 297.195312 663.242188 358.253906 661.632812 371.730469 656.320312 L 375.613281 654.824219 C 397.539062 646.394531 427.480469 634.835938 459.445312 578.566406 C 436.664062 595.675781 429.753906 601.546875 411.585938 608.980469 C 356.257812 631.628906 328.90625 586.285156 248.101562 595.996094 C 168.515625 605.542969 145.777344 673.929688 141.886719 691.542969 C 140.125 699.421875 129.050781 730.167969 145.070312 769.9375 C 144.238281 743.246094 151.523438 720.917969 166.882812 703.453125 "/>
<path style=" stroke:none;fill-rule:nonzero;fill:rgb(34.509277%,50.19989%,16.859436%);fill-opacity:1;" d="M 430.132812 651.695312 C 440.832031 636.320312 448.882812 621.507812 452.980469 611.515625 C 455.824219 604.546875 459.261719 591.574219 460.828125 583.238281 C 428.839844 638.113281 397.6875 650.128906 376.890625 658.125 L 373.019531 659.621094 C 357.546875 665.707031 288.925781 666.757812 271.417969 666.703125 C 264.523438 666.691406 203.105469 667.617188 169.53125 705.785156 C 155.691406 721.546875 148.679688 741.488281 148.53125 765.21875 C 149.261719 762.808594 150.53125 760.195312 152.472656 757.15625 C 159.128906 746.785156 170.035156 741.542969 180.574219 736.574219 C 198.378906 728.203125 220.214844 732.671875 239.113281 734.429688 C 253.34375 735.753906 267.410156 738.347656 281.707031 738.675781 C 302.710938 739.179688 322.523438 734.441406 342.074219 726.707031 C 381.390625 711.152344 406.378906 685.753906 430.132812 651.695312 "/>
<path style=" stroke:none;fill-rule:nonzero;fill:rgb(39.608765%,57.249451%,18.03894%);fill-opacity:1;" d="M 148.953125 776.148438 C 148.644531 772.4375 148.519531 768.773438 148.53125 765.21875 C 147.390625 769.136719 147.699219 772.507812 148.953125 776.148438 "/>
<g clip-path="url(#clip2)" clip-rule="nonzero">
<path style=" stroke:none;fill-rule:nonzero;fill:rgb(22.749329%,32.939148%,10.978699%);fill-opacity:1;" d="M 169.53125 705.785156 C 203.105469 667.617188 264.523438 666.691406 271.417969 666.703125 C 288.925781 666.757812 357.546875 665.707031 373.019531 659.621094 L 376.890625 658.125 C 397.6875 650.128906 428.839844 638.113281 460.828125 583.238281 C 461.363281 580.460938 461.683594 578.199219 461.730469 576.851562 C 460.929688 577.433594 460.210938 577.984375 459.445312 578.566406 C 427.480469 634.835938 397.539062 646.394531 375.613281 654.824219 L 371.730469 656.320312 C 358.253906 661.632812 297.195312 663.242188 271.40625 663.171875 C 264.351562 663.148438 201.472656 664.085938 166.882812 703.453125 C 151.523438 720.917969 144.238281 743.246094 145.070312 769.9375 C 146.269531 772.953125 147.664062 776.011719 149.183594 779.121094 C 149.089844 778.125 149.023438 777.144531 148.953125 776.148438 C 147.699219 772.507812 147.390625 769.136719 148.53125 765.21875 C 148.679688 741.488281 155.691406 721.546875 169.53125 705.785156 "/>
</g>
</g>
</svg>
