<svg xmlns="http://www.w3.org/2000/svg" xmlns:xlink="http://www.w3.org/1999/xlink" width="3400" zoomAndPan="magnify" viewBox="0 0 2550 749.999995" height="1000" preserveAspectRatio="xMidYMid meet" version="1.0"><defs><g/><clipPath id="adf1c1b4e3"><path d="M 72 25.160156 L 665 25.160156 L 665 724.988281 L 72 724.988281 Z M 72 25.160156 " clip-rule="nonzero"/></clipPath><clipPath id="096aecf9e4"><path d="M 100 535 L 396 535 L 396 724.988281 L 100 724.988281 Z M 100 535 " clip-rule="nonzero"/></clipPath></defs><g fill="#58802b" fill-opacity="1"><g transform="translate(670.077744, 495.641281)"><g><path d="M 313.71875 -155.9375 C 313.71875 -121.925781 307.296875 -92.988281 294.453125 -69.125 C 281.609375 -45.269531 264.171875 -27.070312 242.140625 -14.53125 C 220.109375 -2 195.285156 4.265625 167.671875 4.265625 C 139.953125 4.265625 115.078125 -2.023438 93.046875 -14.609375 C 71.015625 -27.203125 53.601562 -45.453125 40.8125 -69.359375 C 28.019531 -93.273438 21.625 -122.132812 21.625 -155.9375 C 21.625 -189.945312 28.019531 -218.878906 40.8125 -242.734375 C 53.601562 -266.597656 71.015625 -284.800781 93.046875 -297.34375 C 115.078125 -309.882812 139.953125 -316.15625 167.671875 -316.15625 C 195.285156 -316.15625 220.109375 -309.882812 242.140625 -297.34375 C 264.171875 -284.800781 281.609375 -266.597656 294.453125 -242.734375 C 307.296875 -218.878906 313.71875 -189.945312 313.71875 -155.9375 Z M 246.859375 -155.9375 C 246.859375 -189.039062 239.648438 -214.296875 225.234375 -231.703125 C 210.816406 -249.117188 191.628906 -257.828125 167.671875 -257.828125 C 143.710938 -257.828125 124.523438 -249.117188 110.109375 -231.703125 C 95.691406 -214.296875 88.484375 -189.039062 88.484375 -155.9375 C 88.484375 -122.945312 95.691406 -97.71875 110.109375 -80.25 C 124.523438 -62.789062 143.710938 -54.0625 167.671875 -54.0625 C 191.628906 -54.0625 210.816406 -62.789062 225.234375 -80.25 C 239.648438 -97.71875 246.859375 -122.945312 246.859375 -155.9375 Z M 246.859375 -155.9375 "/></g></g></g><g fill="#58802b" fill-opacity="1"><g transform="translate(1005.415255, 495.641281)"><g><path d="M 90.765625 -311.890625 L 90.765625 0 L 25.890625 0 L 25.890625 -311.890625 Z M 90.765625 -311.890625 "/></g></g></g><g fill="#58802b" fill-opacity="1"><g transform="translate(1122.067641, 495.641281)"><g><path d="M 150.3125 -233.921875 L 150.3125 -185.1875 L 106.296875 -185.1875 L 106.296875 -71.875 C 106.296875 -62.945312 108.328125 -56.90625 112.390625 -53.75 C 116.453125 -50.601562 121.734375 -49.03125 128.234375 -49.03125 C 131.273438 -49.03125 134.316406 -49.3125 137.359375 -49.875 C 140.410156 -50.4375 142.75 -50.867188 144.375 -51.171875 L 154.578125 -2.890625 C 151.328125 -1.878906 146.753906 -0.691406 140.859375 0.671875 C 134.972656 2.046875 127.816406 2.890625 119.390625 3.203125 C 95.835938 4.210938 76.925781 -0.890625 62.65625 -12.109375 C 48.394531 -23.328125 41.316406 -40.410156 41.421875 -63.359375 L 41.421875 -185.1875 L 9.4375 -185.1875 L 9.4375 -233.921875 L 41.421875 -233.921875 L 41.421875 -289.953125 L 106.296875 -289.953125 L 106.296875 -233.921875 Z M 150.3125 -233.921875 "/></g></g></g><g fill="#58802b" fill-opacity="1"><g transform="translate(1288.670422, 495.641281)"><g><path d="M 25.890625 0 L 25.890625 -233.921875 L 88.78125 -233.921875 L 88.78125 -193.09375 L 91.21875 -193.09375 C 95.476562 -207.613281 102.609375 -218.601562 112.609375 -226.0625 C 122.617188 -233.53125 134.222656 -237.265625 147.421875 -237.265625 C 153.710938 -237.265625 159.546875 -236.503906 164.921875 -234.984375 C 170.304688 -233.460938 175.128906 -231.378906 179.390625 -228.734375 L 159.90625 -175.125 C 156.851562 -176.65625 153.523438 -177.953125 149.921875 -179.015625 C 146.316406 -180.078125 142.285156 -180.609375 137.828125 -180.609375 C 124.722656 -180.609375 113.628906 -176.140625 104.546875 -167.203125 C 95.460938 -158.273438 90.867188 -146.65625 90.765625 -132.34375 L 90.765625 0 Z M 25.890625 0 "/></g></g></g><g fill="#58802b" fill-opacity="1"><g transform="translate(1472.481626, 495.641281)"><g><path d="M 25.890625 0 L 25.890625 -233.921875 L 90.765625 -233.921875 L 90.765625 0 Z M 58.484375 -264.0625 C 48.941406 -264.0625 40.71875 -267.285156 33.8125 -273.734375 C 26.90625 -280.179688 23.453125 -287.925781 23.453125 -296.96875 C 23.453125 -306 26.90625 -313.710938 33.8125 -320.109375 C 40.71875 -326.503906 48.941406 -329.703125 58.484375 -329.703125 C 68.128906 -329.703125 76.398438 -326.503906 83.296875 -320.109375 C 90.203125 -313.710938 93.65625 -306 93.65625 -296.96875 C 93.65625 -287.925781 90.203125 -280.179688 83.296875 -273.734375 C 76.398438 -267.285156 68.128906 -264.0625 58.484375 -264.0625 Z M 58.484375 -264.0625 "/></g></g></g><g fill="#58802b" fill-opacity="1"><g transform="translate(1589.133966, 495.641281)"><g><path d="M 132.484375 4.5625 C 108.523438 4.5625 87.863281 -0.332031 70.5 -10.125 C 53.144531 -19.925781 39.796875 -33.835938 30.453125 -51.859375 C 21.117188 -69.878906 16.453125 -91.222656 16.453125 -115.890625 C 16.453125 -139.953125 21.117188 -161.066406 30.453125 -179.234375 C 39.796875 -197.410156 52.96875 -211.570312 69.96875 -221.71875 C 86.976562 -231.875 106.957031 -236.953125 129.90625 -236.953125 C 150.507812 -236.953125 169.109375 -232.585938 185.703125 -223.859375 C 202.304688 -215.128906 215.484375 -201.957031 225.234375 -184.34375 C 234.984375 -166.726562 239.859375 -144.671875 239.859375 -118.171875 L 239.859375 -100.359375 L 80.5625 -100.359375 L 80.5625 -100.203125 C 80.5625 -82.742188 85.332031 -68.988281 94.875 -58.9375 C 104.414062 -48.882812 117.3125 -43.859375 133.5625 -43.859375 C 144.425781 -43.859375 153.816406 -46.140625 161.734375 -50.703125 C 169.648438 -55.273438 175.234375 -62.03125 178.484375 -70.96875 L 238.484375 -67 C 233.910156 -45.28125 222.332031 -27.921875 203.75 -14.921875 C 185.175781 -1.929688 161.421875 4.5625 132.484375 4.5625 Z M 80.5625 -140.5625 L 178.78125 -140.5625 C 178.6875 -154.46875 174.222656 -165.9375 165.390625 -174.96875 C 156.554688 -184.007812 145.082031 -188.53125 130.96875 -188.53125 C 116.550781 -188.53125 104.722656 -183.859375 95.484375 -174.515625 C 86.242188 -165.179688 81.269531 -153.863281 80.5625 -140.5625 Z M 80.5625 -140.5625 "/></g></g></g><path fill="#81c134" d="M 88.1875 539.457031 C 136.617188 423.386719 278.867188 372.925781 294.917969 367.550781 C 353.605469 347.9375 491.171875 297.371094 517.726562 274.980469 L 525.417969 268.5625 C 568.757812 232.5625 627.980469 183.296875 657.40625 30.804688 C 618.746094 87.226562 607.589844 105.851562 571.957031 136.730469 C 463.550781 230.71875 366.628906 148.621094 190.304688 232.765625 C 16.746094 315.609375 17.566406 488.558594 22.183594 531.585938 C 24.273438 550.828125 22.683594 629.222656 89.648438 707.328125 C 67.308594 647.277344 66.730469 590.917969 88.1875 539.457031 " fill-opacity="1" fill-rule="nonzero"/><path fill="#81c134" d="M 646.910156 219.59375 C 659.464844 176.425781 666.375 136.546875 668.007812 110.726562 C 669.136719 92.667969 666.980469 60.53125 664.167969 40.359375 C 633.558594 189.707031 571.9375 240.957031 530.855469 275.097656 L 523.199219 281.476562 C 492.695312 307.203125 337.511719 362.28125 297.613281 375.625 C 281.925781 380.863281 143.027344 430.128906 96.039062 542.730469 C 76.671875 589.148438 76.050781 639.855469 93.9375 693.941406 C 93.703125 687.90625 94.578125 680.972656 96.667969 672.578125 C 103.855469 643.917969 124.621094 623.621094 144.789062 604.242188 C 178.851562 571.488281 231.898438 564.917969 276.1875 554.378906 C 309.558594 546.441406 343.539062 541.566406 376.246094 531.351562 C 424.410156 516.320312 465.832031 490.339844 504.351562 457.734375 C 581.792969 392.167969 619.066406 315.289062 646.910156 219.59375 " fill-opacity="1" fill-rule="nonzero"/><path fill="#65922e" d="M 103.246094 718.507812 C 99.738281 710.242188 96.613281 702.050781 93.9375 693.941406 C 94.300781 703.753906 97.605469 711.15625 103.246094 718.507812 " fill-opacity="1" fill-rule="nonzero"/><g clip-path="url(#adf1c1b4e3)"><path fill="#507629" d="M 96.039062 542.730469 C 143.027344 430.128906 281.925781 380.863281 297.613281 375.625 C 337.511719 362.28125 492.695312 307.203125 523.199219 281.476562 L 530.855469 275.097656 C 571.9375 240.957031 633.558594 189.707031 664.167969 40.359375 C 663.238281 33.652344 662.246094 28.277344 661.277344 25.183594 C 659.921875 27.144531 658.695312 28.9375 657.40625 30.804688 C 627.980469 183.296875 568.757812 232.5625 525.417969 268.5625 L 517.726562 274.980469 C 491.171875 297.371094 353.605469 347.9375 294.917969 367.550781 C 278.867188 372.925781 136.617188 423.386719 88.1875 539.457031 C 66.730469 590.917969 67.308594 647.277344 89.648438 707.328125 C 94.714844 713.257812 100.1875 719.15625 106.074219 725.046875 C 105.09375 722.859375 104.195312 720.683594 103.246094 718.507812 C 97.605469 711.15625 94.300781 703.753906 93.9375 693.941406 C 76.050781 639.855469 76.671875 589.148438 96.039062 542.730469 " fill-opacity="1" fill-rule="nonzero"/></g><path fill="#58802b" d="M 120.578125 653.6875 C 152.882812 616.921875 211.601562 616.050781 218.195312 616.070312 C 242.273438 616.132812 299.300781 614.628906 311.882812 609.671875 L 315.511719 608.273438 C 335.988281 600.402344 363.949219 589.609375 393.800781 537.054688 C 372.523438 553.035156 366.074219 558.515625 349.105469 565.460938 C 297.433594 586.609375 271.890625 544.265625 196.425781 553.332031 C 122.101562 562.25 100.871094 626.117188 97.234375 642.566406 C 95.589844 649.925781 85.246094 678.636719 100.207031 715.777344 C 99.429688 690.851562 106.234375 669.996094 120.578125 653.6875 " fill-opacity="1" fill-rule="nonzero"/><path fill="#58802b" d="M 366.425781 605.351562 C 376.417969 590.996094 383.9375 577.160156 387.765625 567.828125 C 390.421875 561.320312 393.628906 549.203125 395.09375 541.417969 C 365.21875 592.667969 336.125 603.890625 316.703125 611.355469 L 313.089844 612.753906 C 298.640625 618.4375 234.554688 619.417969 218.203125 619.367188 C 211.761719 619.355469 154.40625 620.21875 123.050781 655.867188 C 110.125 670.585938 103.578125 689.207031 103.441406 711.371094 C 104.121094 709.121094 105.304688 706.679688 107.117188 703.839844 C 113.335938 694.15625 123.523438 689.261719 133.363281 684.621094 C 149.992188 676.800781 170.382812 680.972656 188.035156 682.617188 C 201.320312 683.851562 214.460938 686.273438 227.8125 686.582031 C 247.425781 687.050781 265.929688 682.625 284.1875 675.40625 C 320.90625 660.878906 344.242188 637.15625 366.425781 605.351562 " fill-opacity="1" fill-rule="nonzero"/><path fill="#65922e" d="M 103.835938 721.578125 C 103.546875 718.113281 103.429688 714.6875 103.441406 711.371094 C 102.375 715.03125 102.660156 718.175781 103.835938 721.578125 " fill-opacity="1" fill-rule="nonzero"/><g clip-path="url(#096aecf9e4)"><path fill="#3a541c" d="M 123.050781 655.867188 C 154.40625 620.21875 211.761719 619.355469 218.203125 619.367188 C 234.554688 619.417969 298.640625 618.4375 313.089844 612.753906 L 316.703125 611.355469 C 336.125 603.890625 365.21875 592.667969 395.09375 541.417969 C 395.59375 538.828125 395.890625 536.714844 395.933594 535.457031 C 395.1875 536 394.515625 536.511719 393.800781 537.054688 C 363.949219 589.609375 335.988281 600.402344 315.511719 608.273438 L 311.882812 609.671875 C 299.300781 614.628906 242.273438 616.132812 218.195312 616.070312 C 211.601562 616.050781 152.882812 616.921875 120.578125 653.6875 C 106.234375 669.996094 99.429688 690.851562 100.207031 715.777344 C 101.328125 718.59375 102.628906 721.449219 104.046875 724.351562 C 103.960938 723.421875 103.898438 722.507812 103.835938 721.578125 C 102.660156 718.175781 102.375 715.03125 103.441406 711.371094 C 103.578125 689.207031 110.125 670.585938 123.050781 655.867188 " fill-opacity="1" fill-rule="nonzero"/></g><g fill="#58802b" fill-opacity="1"><g transform="translate(712.656478, 670.167089)"><g><path d="M 14.59375 0 L 14.59375 -120.46875 L 55.296875 -120.46875 C 64.703125 -120.46875 72.425781 -118.867188 78.46875 -115.671875 C 84.507812 -112.472656 88.976562 -108.085938 91.875 -102.515625 C 94.78125 -96.953125 96.234375 -90.625 96.234375 -83.53125 C 96.234375 -75.53125 94.398438 -68.554688 90.734375 -62.609375 C 87.066406 -56.671875 81.390625 -52.390625 73.703125 -49.765625 L 100.9375 0 L 84 0 L 58.578125 -47.109375 C 57.597656 -47.078125 56.582031 -47.0625 55.53125 -47.0625 L 29.171875 -47.0625 L 29.171875 0 Z M 29.171875 -60.234375 L 55.0625 -60.234375 C 64.707031 -60.234375 71.585938 -62.3125 75.703125 -66.46875 C 79.816406 -70.625 81.875 -76.3125 81.875 -83.53125 C 81.875 -90.78125 79.804688 -96.59375 75.671875 -100.96875 C 71.535156 -105.34375 64.585938 -107.53125 54.828125 -107.53125 L 29.171875 -107.53125 Z M 29.171875 -60.234375 "/></g></g></g><g fill="#58802b" fill-opacity="1"><g transform="translate(818.534193, 670.167089)"><g><path d="M 50.59375 1.875 C 41.882812 1.875 34.378906 -0.0507812 28.078125 -3.90625 C 21.785156 -7.769531 16.941406 -13.179688 13.546875 -20.140625 C 10.160156 -27.109375 8.46875 -35.21875 8.46875 -44.46875 C 8.46875 -53.71875 10.160156 -61.878906 13.546875 -68.953125 C 16.941406 -76.035156 21.6875 -81.566406 27.78125 -85.546875 C 33.882812 -89.535156 41.015625 -91.53125 49.171875 -91.53125 C 53.878906 -91.53125 58.523438 -90.742188 63.109375 -89.171875 C 67.703125 -87.597656 71.878906 -85.054688 75.640625 -81.546875 C 79.410156 -78.046875 82.410156 -73.410156 84.640625 -67.640625 C 86.878906 -61.878906 88 -54.78125 88 -46.34375 L 88 -40.46875 L 22.40625 -40.46875 C 22.71875 -30.820312 25.453125 -23.429688 30.609375 -18.296875 C 35.765625 -13.160156 42.425781 -10.59375 50.59375 -10.59375 C 56.039062 -10.59375 60.722656 -11.765625 64.640625 -14.109375 C 68.566406 -16.460938 71.410156 -19.992188 73.171875 -24.703125 L 86.578125 -20.9375 C 84.460938 -14.113281 80.226562 -8.601562 73.875 -4.40625 C 67.519531 -0.21875 59.757812 1.875 50.59375 1.875 Z M 22.40625 -52.46875 L 73.875 -52.46875 C 73.875 -60.113281 71.640625 -66.457031 67.171875 -71.5 C 62.703125 -76.539062 56.703125 -79.0625 49.171875 -79.0625 C 43.878906 -79.0625 39.289062 -77.820312 35.40625 -75.34375 C 31.53125 -72.875 28.472656 -69.609375 26.234375 -65.546875 C 23.992188 -61.492188 22.71875 -57.132812 22.40625 -52.46875 Z M 22.40625 -52.46875 "/></g></g></g><g fill="#58802b" fill-opacity="1"><g transform="translate(915.000564, 670.167089)"><g><path d="M 26.59375 -54.34375 L 26.59375 0 L 12.703125 0 L 12.703125 -90.34375 L 26.109375 -90.34375 L 26.109375 -76.234375 L 27.296875 -76.234375 C 29.410156 -80.816406 32.625 -84.507812 36.9375 -87.3125 C 41.25 -90.125 46.816406 -91.53125 53.640625 -91.53125 C 62.773438 -91.53125 70.15625 -88.722656 75.78125 -83.109375 C 81.414062 -77.503906 84.234375 -68.9375 84.234375 -57.40625 L 84.234375 0 L 70.34375 0 L 70.34375 -56.46875 C 70.34375 -63.5625 68.5 -69.097656 64.8125 -73.078125 C 61.132812 -77.066406 56.078125 -79.0625 49.640625 -79.0625 C 43.015625 -79.0625 37.515625 -76.910156 33.140625 -72.609375 C 28.773438 -68.316406 26.59375 -62.226562 26.59375 -54.34375 Z M 26.59375 -54.34375 "/></g></g></g><g fill="#58802b" fill-opacity="1"><g transform="translate(1011.937501, 670.167089)"><g><path d="M 52 -90.34375 L 52 -78.578125 L 32.703125 -78.578125 L 32.703125 -25.875 C 32.703125 -21.957031 33.28125 -19.023438 34.4375 -17.078125 C 35.59375 -15.140625 37.082031 -13.847656 38.90625 -13.203125 C 40.726562 -12.554688 42.660156 -12.234375 44.703125 -12.234375 C 46.234375 -12.234375 47.488281 -12.320312 48.46875 -12.5 C 49.445312 -12.675781 50.234375 -12.820312 50.828125 -12.9375 L 53.640625 -0.46875 C 52.703125 -0.113281 51.390625 0.242188 49.703125 0.609375 C 48.015625 0.984375 45.878906 1.171875 43.296875 1.171875 C 39.367188 1.171875 35.53125 0.332031 31.78125 -1.34375 C 28.039062 -3.03125 24.945312 -5.597656 22.5 -9.046875 C 20.050781 -12.503906 18.828125 -16.859375 18.828125 -22.109375 L 18.828125 -78.578125 L 5.171875 -78.578125 L 5.171875 -90.34375 L 18.828125 -90.34375 L 18.828125 -112 L 32.703125 -112 L 32.703125 -90.34375 Z M 52 -90.34375 "/></g></g></g><g fill="#58802b" fill-opacity="1"><g transform="translate(1072.170158, 670.167089)"><g><path d="M 39.296875 2.125 C 33.566406 2.125 28.367188 1.035156 23.703125 -1.140625 C 19.035156 -3.316406 15.328125 -6.472656 12.578125 -10.609375 C 9.835938 -14.753906 8.46875 -19.765625 8.46875 -25.640625 C 8.46875 -30.816406 9.488281 -35.019531 11.53125 -38.25 C 13.570312 -41.488281 16.296875 -44.03125 19.703125 -45.875 C 23.117188 -47.71875 26.894531 -49.097656 31.03125 -50.015625 C 35.164062 -50.941406 39.332031 -51.679688 43.53125 -52.234375 C 49.019531 -52.941406 53.476562 -53.476562 56.90625 -53.84375 C 60.34375 -54.21875 62.851562 -54.851562 64.4375 -55.75 C 66.03125 -56.65625 66.828125 -58.226562 66.828125 -60.46875 L 66.828125 -60.9375 C 66.828125 -66.738281 65.242188 -71.25 62.078125 -74.46875 C 58.921875 -77.6875 54.148438 -79.296875 47.765625 -79.296875 C 41.140625 -79.296875 35.941406 -77.84375 32.171875 -74.9375 C 28.410156 -72.03125 25.765625 -68.929688 24.234375 -65.640625 L 11.0625 -70.34375 C 13.414062 -75.832031 16.5625 -80.113281 20.5 -83.1875 C 24.4375 -86.269531 28.75 -88.429688 33.4375 -89.671875 C 38.125 -90.910156 42.742188 -91.53125 47.296875 -91.53125 C 50.191406 -91.53125 53.53125 -91.1875 57.3125 -90.5 C 61.101562 -89.8125 64.769531 -88.40625 68.3125 -86.28125 C 71.863281 -84.164062 74.816406 -80.972656 77.171875 -76.703125 C 79.523438 -72.429688 80.703125 -66.707031 80.703125 -59.53125 L 80.703125 0 L 66.828125 0 L 66.828125 -12.234375 L 66.109375 -12.234375 C 65.171875 -10.273438 63.601562 -8.175781 61.40625 -5.9375 C 59.207031 -3.707031 56.285156 -1.804688 52.640625 -0.234375 C 48.992188 1.335938 44.546875 2.125 39.296875 2.125 Z M 41.40625 -10.359375 C 46.894531 -10.359375 51.53125 -11.4375 55.3125 -13.59375 C 59.101562 -15.75 61.96875 -18.53125 63.90625 -21.9375 C 65.851562 -25.351562 66.828125 -28.941406 66.828125 -32.703125 L 66.828125 -45.40625 C 66.234375 -44.695312 64.945312 -44.054688 62.96875 -43.484375 C 60.988281 -42.921875 58.710938 -42.429688 56.140625 -42.015625 C 53.578125 -41.609375 51.085938 -41.257812 48.671875 -40.96875 C 46.265625 -40.675781 44.316406 -40.429688 42.828125 -40.234375 C 39.210938 -39.765625 35.847656 -39.007812 32.734375 -37.96875 C 29.617188 -36.925781 27.109375 -35.375 25.203125 -33.3125 C 23.304688 -31.257812 22.359375 -28.46875 22.359375 -24.9375 C 22.359375 -20.113281 24.148438 -16.476562 27.734375 -14.03125 C 31.316406 -11.582031 35.875 -10.359375 41.40625 -10.359375 Z M 41.40625 -10.359375 "/></g></g></g><g fill="#58802b" fill-opacity="1"><g transform="translate(1165.577812, 670.167089)"><g><path d="M 26.59375 -120.46875 L 26.59375 0 L 12.703125 0 L 12.703125 -120.46875 Z M 26.59375 -120.46875 "/></g></g></g><g fill="#58802b" fill-opacity="1"><g transform="translate(1204.87021, 670.167089)"><g/></g></g><g fill="#58802b" fill-opacity="1"><g transform="translate(1251.456416, 670.167089)"><g><path d="M 14.59375 -120.46875 L 32 -120.46875 L 72.9375 -20.46875 L 74.34375 -20.46875 L 115.296875 -120.46875 L 132.703125 -120.46875 L 132.703125 0 L 119.046875 0 L 119.046875 -91.53125 L 117.875 -91.53125 L 80.234375 0 L 67.0625 0 L 29.40625 -91.53125 L 28.234375 -91.53125 L 28.234375 0 L 14.59375 0 Z M 14.59375 -120.46875 "/></g></g></g><g fill="#58802b" fill-opacity="1"><g transform="translate(1402.508608, 670.167089)"><g><path d="M 39.296875 2.125 C 33.566406 2.125 28.367188 1.035156 23.703125 -1.140625 C 19.035156 -3.316406 15.328125 -6.472656 12.578125 -10.609375 C 9.835938 -14.753906 8.46875 -19.765625 8.46875 -25.640625 C 8.46875 -30.816406 9.488281 -35.019531 11.53125 -38.25 C 13.570312 -41.488281 16.296875 -44.03125 19.703125 -45.875 C 23.117188 -47.71875 26.894531 -49.097656 31.03125 -50.015625 C 35.164062 -50.941406 39.332031 -51.679688 43.53125 -52.234375 C 49.019531 -52.941406 53.476562 -53.476562 56.90625 -53.84375 C 60.34375 -54.21875 62.851562 -54.851562 64.4375 -55.75 C 66.03125 -56.65625 66.828125 -58.226562 66.828125 -60.46875 L 66.828125 -60.9375 C 66.828125 -66.738281 65.242188 -71.25 62.078125 -74.46875 C 58.921875 -77.6875 54.148438 -79.296875 47.765625 -79.296875 C 41.140625 -79.296875 35.941406 -77.84375 32.171875 -74.9375 C 28.410156 -72.03125 25.765625 -68.929688 24.234375 -65.640625 L 11.0625 -70.34375 C 13.414062 -75.832031 16.5625 -80.113281 20.5 -83.1875 C 24.4375 -86.269531 28.75 -88.429688 33.4375 -89.671875 C 38.125 -90.910156 42.742188 -91.53125 47.296875 -91.53125 C 50.191406 -91.53125 53.53125 -91.1875 57.3125 -90.5 C 61.101562 -89.8125 64.769531 -88.40625 68.3125 -86.28125 C 71.863281 -84.164062 74.816406 -80.972656 77.171875 -76.703125 C 79.523438 -72.429688 80.703125 -66.707031 80.703125 -59.53125 L 80.703125 0 L 66.828125 0 L 66.828125 -12.234375 L 66.109375 -12.234375 C 65.171875 -10.273438 63.601562 -8.175781 61.40625 -5.9375 C 59.207031 -3.707031 56.285156 -1.804688 52.640625 -0.234375 C 48.992188 1.335938 44.546875 2.125 39.296875 2.125 Z M 41.40625 -10.359375 C 46.894531 -10.359375 51.53125 -11.4375 55.3125 -13.59375 C 59.101562 -15.75 61.96875 -18.53125 63.90625 -21.9375 C 65.851562 -25.351562 66.828125 -28.941406 66.828125 -32.703125 L 66.828125 -45.40625 C 66.234375 -44.695312 64.945312 -44.054688 62.96875 -43.484375 C 60.988281 -42.921875 58.710938 -42.429688 56.140625 -42.015625 C 53.578125 -41.609375 51.085938 -41.257812 48.671875 -40.96875 C 46.265625 -40.675781 44.316406 -40.429688 42.828125 -40.234375 C 39.210938 -39.765625 35.847656 -39.007812 32.734375 -37.96875 C 29.617188 -36.925781 27.109375 -35.375 25.203125 -33.3125 C 23.304688 -31.257812 22.359375 -28.46875 22.359375 -24.9375 C 22.359375 -20.113281 24.148438 -16.476562 27.734375 -14.03125 C 31.316406 -11.582031 35.875 -10.359375 41.40625 -10.359375 Z M 41.40625 -10.359375 "/></g></g></g><g fill="#58802b" fill-opacity="1"><g transform="translate(1495.916262, 670.167089)"><g><path d="M 26.59375 -54.34375 L 26.59375 0 L 12.703125 0 L 12.703125 -90.34375 L 26.109375 -90.34375 L 26.109375 -76.234375 L 27.296875 -76.234375 C 29.410156 -80.816406 32.625 -84.507812 36.9375 -87.3125 C 41.25 -90.125 46.816406 -91.53125 53.640625 -91.53125 C 62.773438 -91.53125 70.15625 -88.722656 75.78125 -83.109375 C 81.414062 -77.503906 84.234375 -68.9375 84.234375 -57.40625 L 84.234375 0 L 70.34375 0 L 70.34375 -56.46875 C 70.34375 -63.5625 68.5 -69.097656 64.8125 -73.078125 C 61.132812 -77.066406 56.078125 -79.0625 49.640625 -79.0625 C 43.015625 -79.0625 37.515625 -76.910156 33.140625 -72.609375 C 28.773438 -68.316406 26.59375 -62.226562 26.59375 -54.34375 Z M 26.59375 -54.34375 "/></g></g></g><g fill="#58802b" fill-opacity="1"><g transform="translate(1592.853199, 670.167089)"><g><path d="M 39.296875 2.125 C 33.566406 2.125 28.367188 1.035156 23.703125 -1.140625 C 19.035156 -3.316406 15.328125 -6.472656 12.578125 -10.609375 C 9.835938 -14.753906 8.46875 -19.765625 8.46875 -25.640625 C 8.46875 -30.816406 9.488281 -35.019531 11.53125 -38.25 C 13.570312 -41.488281 16.296875 -44.03125 19.703125 -45.875 C 23.117188 -47.71875 26.894531 -49.097656 31.03125 -50.015625 C 35.164062 -50.941406 39.332031 -51.679688 43.53125 -52.234375 C 49.019531 -52.941406 53.476562 -53.476562 56.90625 -53.84375 C 60.34375 -54.21875 62.851562 -54.851562 64.4375 -55.75 C 66.03125 -56.65625 66.828125 -58.226562 66.828125 -60.46875 L 66.828125 -60.9375 C 66.828125 -66.738281 65.242188 -71.25 62.078125 -74.46875 C 58.921875 -77.6875 54.148438 -79.296875 47.765625 -79.296875 C 41.140625 -79.296875 35.941406 -77.84375 32.171875 -74.9375 C 28.410156 -72.03125 25.765625 -68.929688 24.234375 -65.640625 L 11.0625 -70.34375 C 13.414062 -75.832031 16.5625 -80.113281 20.5 -83.1875 C 24.4375 -86.269531 28.75 -88.429688 33.4375 -89.671875 C 38.125 -90.910156 42.742188 -91.53125 47.296875 -91.53125 C 50.191406 -91.53125 53.53125 -91.1875 57.3125 -90.5 C 61.101562 -89.8125 64.769531 -88.40625 68.3125 -86.28125 C 71.863281 -84.164062 74.816406 -80.972656 77.171875 -76.703125 C 79.523438 -72.429688 80.703125 -66.707031 80.703125 -59.53125 L 80.703125 0 L 66.828125 0 L 66.828125 -12.234375 L 66.109375 -12.234375 C 65.171875 -10.273438 63.601562 -8.175781 61.40625 -5.9375 C 59.207031 -3.707031 56.285156 -1.804688 52.640625 -0.234375 C 48.992188 1.335938 44.546875 2.125 39.296875 2.125 Z M 41.40625 -10.359375 C 46.894531 -10.359375 51.53125 -11.4375 55.3125 -13.59375 C 59.101562 -15.75 61.96875 -18.53125 63.90625 -21.9375 C 65.851562 -25.351562 66.828125 -28.941406 66.828125 -32.703125 L 66.828125 -45.40625 C 66.234375 -44.695312 64.945312 -44.054688 62.96875 -43.484375 C 60.988281 -42.921875 58.710938 -42.429688 56.140625 -42.015625 C 53.578125 -41.609375 51.085938 -41.257812 48.671875 -40.96875 C 46.265625 -40.675781 44.316406 -40.429688 42.828125 -40.234375 C 39.210938 -39.765625 35.847656 -39.007812 32.734375 -37.96875 C 29.617188 -36.925781 27.109375 -35.375 25.203125 -33.3125 C 23.304688 -31.257812 22.359375 -28.46875 22.359375 -24.9375 C 22.359375 -20.113281 24.148438 -16.476562 27.734375 -14.03125 C 31.316406 -11.582031 35.875 -10.359375 41.40625 -10.359375 Z M 41.40625 -10.359375 "/></g></g></g><g fill="#58802b" fill-opacity="1"><g transform="translate(1686.260853, 670.167089)"><g><path d="M 49.171875 35.765625 C 39.097656 35.765625 31.128906 33.929688 25.265625 30.265625 C 19.398438 26.597656 15.054688 22.390625 12.234375 17.640625 L 23.296875 9.875 C 24.546875 11.53125 26.128906 13.425781 28.046875 15.5625 C 29.972656 17.695312 32.613281 19.554688 35.96875 21.140625 C 39.320312 22.734375 43.722656 23.53125 49.171875 23.53125 C 56.460938 23.53125 62.476562 21.765625 67.21875 18.234375 C 71.96875 14.703125 74.34375 9.171875 74.34375 1.640625 L 74.34375 -16.703125 L 73.171875 -16.703125 C 72.148438 -15.054688 70.707031 -13.023438 68.84375 -10.609375 C 66.988281 -8.203125 64.320312 -6.066406 60.84375 -4.203125 C 57.375 -2.335938 52.703125 -1.40625 46.828125 -1.40625 C 39.523438 -1.40625 32.984375 -3.128906 27.203125 -6.578125 C 21.421875 -10.035156 16.851562 -15.054688 13.5 -21.640625 C 10.144531 -28.234375 8.46875 -36.234375 8.46875 -45.640625 C 8.46875 -54.898438 10.09375 -62.96875 13.34375 -69.84375 C 16.601562 -76.726562 21.132812 -82.0625 26.9375 -85.84375 C 32.738281 -89.632812 39.445312 -91.53125 47.0625 -91.53125 C 52.9375 -91.53125 57.609375 -90.554688 61.078125 -88.609375 C 64.554688 -86.671875 67.222656 -84.472656 69.078125 -82.015625 C 70.941406 -79.566406 72.382812 -77.5625 73.40625 -76 L 74.828125 -76 L 74.828125 -90.34375 L 88.234375 -90.34375 L 88.234375 2.59375 C 88.234375 10.351562 86.476562 16.671875 82.96875 21.546875 C 79.457031 26.429688 74.75 30.019531 68.84375 32.3125 C 62.945312 34.613281 56.390625 35.765625 49.171875 35.765625 Z M 48.703125 -13.875 C 57.054688 -13.875 63.457031 -16.707031 67.90625 -22.375 C 72.351562 -28.039062 74.578125 -35.875 74.578125 -45.875 C 74.578125 -55.644531 72.378906 -63.617188 67.984375 -69.796875 C 63.597656 -75.972656 57.171875 -79.0625 48.703125 -79.0625 C 42.816406 -79.0625 37.921875 -77.566406 34.015625 -74.578125 C 30.117188 -71.597656 27.203125 -67.597656 25.265625 -62.578125 C 23.328125 -57.566406 22.359375 -52 22.359375 -45.875 C 22.359375 -36.46875 24.570312 -28.78125 29 -22.8125 C 33.425781 -16.851562 39.992188 -13.875 48.703125 -13.875 Z M 48.703125 -13.875 "/></g></g></g><g fill="#58802b" fill-opacity="1"><g transform="translate(1787.197621, 670.167089)"><g><path d="M 50.59375 1.875 C 41.882812 1.875 34.378906 -0.0507812 28.078125 -3.90625 C 21.785156 -7.769531 16.941406 -13.179688 13.546875 -20.140625 C 10.160156 -27.109375 8.46875 -35.21875 8.46875 -44.46875 C 8.46875 -53.71875 10.160156 -61.878906 13.546875 -68.953125 C 16.941406 -76.035156 21.6875 -81.566406 27.78125 -85.546875 C 33.882812 -89.535156 41.015625 -91.53125 49.171875 -91.53125 C 53.878906 -91.53125 58.523438 -90.742188 63.109375 -89.171875 C 67.703125 -87.597656 71.878906 -85.054688 75.640625 -81.546875 C 79.410156 -78.046875 82.410156 -73.410156 84.640625 -67.640625 C 86.878906 -61.878906 88 -54.78125 88 -46.34375 L 88 -40.46875 L 22.40625 -40.46875 C 22.71875 -30.820312 25.453125 -23.429688 30.609375 -18.296875 C 35.765625 -13.160156 42.425781 -10.59375 50.59375 -10.59375 C 56.039062 -10.59375 60.722656 -11.765625 64.640625 -14.109375 C 68.566406 -16.460938 71.410156 -19.992188 73.171875 -24.703125 L 86.578125 -20.9375 C 84.460938 -14.113281 80.226562 -8.601562 73.875 -4.40625 C 67.519531 -0.21875 59.757812 1.875 50.59375 1.875 Z M 22.40625 -52.46875 L 73.875 -52.46875 C 73.875 -60.113281 71.640625 -66.457031 67.171875 -71.5 C 62.703125 -76.539062 56.703125 -79.0625 49.171875 -79.0625 C 43.878906 -79.0625 39.289062 -77.820312 35.40625 -75.34375 C 31.53125 -72.875 28.472656 -69.609375 26.234375 -65.546875 C 23.992188 -61.492188 22.71875 -57.132812 22.40625 -52.46875 Z M 22.40625 -52.46875 "/></g></g></g><g fill="#58802b" fill-opacity="1"><g transform="translate(1883.663944, 670.167089)"><g><path d="M 12.703125 0 L 12.703125 -90.34375 L 26.109375 -90.34375 L 26.109375 -76.703125 L 27.0625 -76.703125 C 28.664062 -81.171875 31.625 -84.796875 35.9375 -87.578125 C 40.25 -90.367188 45.132812 -91.765625 50.59375 -91.765625 C 53.09375 -91.765625 55.285156 -91.46875 57.171875 -90.875 C 59.054688 -90.289062 60.703125 -89.488281 62.109375 -88.46875 L 57.40625 -76.703125 C 56.425781 -77.210938 55.28125 -77.613281 53.96875 -77.90625 C 52.65625 -78.195312 51.132812 -78.34375 49.40625 -78.34375 C 42.820312 -78.34375 37.375 -76.332031 33.0625 -72.3125 C 28.75 -68.300781 26.59375 -63.253906 26.59375 -57.171875 L 26.59375 0 Z M 12.703125 0 "/></g></g></g></svg>